# xmcd CD database file
#
# Track frame offsets:
#	187
#	29982
#	57902
#	81392
#	108895
#	138140
#	169937
#
# Disc length: 2581 seconds
#
# Revision: 0
# Processed by: cddbd v1.5.1PL0 Copyright (c) Steve Scherf et al.
# Submitted via: CDex 1.51
#
DISCID=5d0a1307
DTITLE=Ralph Moore - Round Trip
DYEAR=1900
DGENRE=Jazz
TTITLE0=Dunes
TTITLE1=Bewitched
TTITLE2=Round trip
TTITLE3=Lotus Blossom
TTITLE4=Monique
TTITLE5=Back Room Blues
TTITLE6=Sleigh Ride
EXTD=
EXTT0=
EXTT1=
EXTT2=
EXTT3=
EXTT4=
EXTT5=
EXTT6=
PLAYORDER=
